# xmcd
#
# Track frame offsets:
#	150
#	31916
#	94878
#	108523
#	135158
#	172029
#	205417
#	247208
#	272747
#
# Disc length: 3984 seconds
#
# Revision: 1
# Processed by: cddbd v1.5.2PL0 Copyright (c) Steve Scherf et al.
# Submitted via: audiograbber 1.83.01
#
DISCID=7f0f8e09
DTITLE=Grateful Dead - 78-11-24 Capitol Theatre, Passaic NJ
DYEAR=1900
DGENRE=
TTITLE0=Jack Straw
TTITLE1=Sugaree
TTITLE2=Me and My Uncle
TTITLE3=Big River
TTITLE4=Stagger Lee
TTITLE5=Passenger
TTITLE6=Candyman
TTITLE7=New Minglewood Blues
TTITLE8=From The Heart Of Me
EXTD=
EXTT0=
EXTT1=
EXTT2=
EXTT3=
EXTT4=
EXTT5=
EXTT6=
EXTT7=
EXTT8=
PLAYORDER=
